<svg xmlns="http://www.w3.org/2000/svg" width="81.25" height="81.25" viewBox="0 0 81.25 81.25"><circle cx="40.625" cy="40.625" r="40.625" fill="rgba(255,255,255,0.45)"/><path d="M35.457,4.831H11.094a7.683,7.683,0,0,0-7.675,7.674V36.869a7.683,7.683,0,0,0,7.675,7.674H35.458a7.682,7.682,0,0,0,7.674-7.674V12.5A7.683,7.683,0,0,0,35.457,4.831Zm2.2,4.576.878,0v6.731l-6.709.022L31.8,9.427Zm-20.051,11.2a6.978,6.978,0,1,1-1.323,4.076A6.988,6.988,0,0,1,17.607,20.611ZM39.262,36.869a3.808,3.808,0,0,1-3.805,3.805H11.094a3.809,3.809,0,0,1-3.806-3.805V20.611h5.928a10.86,10.86,0,1,0,20.117,0h5.929Z" transform="translate(16.762 14.1)" fill="#392d1f"/></svg>